<svg width="107" height="76" viewBox="0 0 107 76" fill="none" xmlns="http://www.w3.org/2000/svg">
<path d="M32.1 38C42.4489 38 50.825 29.5009 50.825 19C50.825 8.49911 42.4489 0 32.1 0C21.7511 0 13.375 8.49911 13.375 19C13.375 29.5009 21.7511 38 32.1 38ZM44.94 43.4286H43.5523C40.0748 45.125 36.2128 46.1429 32.1 46.1429C27.9872 46.1429 24.1419 45.125 20.6477 43.4286H19.26C8.62687 43.4286 0 52.1821 0 62.9714V67.8571C0 72.3527 3.59453 76 8.025 76H56.175C60.6055 76 64.2 72.3527 64.2 67.8571V62.9714C64.2 52.1821 55.5731 43.4286 44.94 43.4286ZM80.25 38C89.1109 38 96.3 30.7054 96.3 21.7143C96.3 12.7232 89.1109 5.42857 80.25 5.42857C71.3891 5.42857 64.2 12.7232 64.2 21.7143C64.2 30.7054 71.3891 38 80.25 38ZM88.275 43.4286H87.6397C85.3158 44.2429 82.8581 44.7857 80.25 44.7857C77.6419 44.7857 75.1842 44.2429 72.8603 43.4286H72.225C68.8144 43.4286 65.6712 44.4295 62.9127 46.0411C66.992 50.5027 69.55 56.4232 69.55 62.9714V69.4857C69.55 69.8589 69.4664 70.2152 69.4497 70.5714H98.975C103.405 70.5714 107 66.9241 107 62.4286C107 51.9277 98.6239 43.4286 88.275 43.4286Z" fill="white"/>
</svg>
