<svg width="94" height="72" viewBox="0 0 94 72" fill="none" xmlns="http://www.w3.org/2000/svg">
<path d="M92.699 39.185L61.3642 70.6797C58.5664 73.4918 53.7169 71.5234 53.7169 67.4928V49.4958H28.3506C25.8699 49.4958 23.8742 47.4898 23.8742 44.9965V26.9995C23.8742 24.5062 25.8699 22.5003 28.3506 22.5003H53.7169V4.50324C53.7169 0.491406 58.5477 -1.49576 61.3642 1.31627L92.699 32.811C94.4336 34.5732 94.4336 37.4228 92.699 39.185ZM35.8113 69.7424V62.2436C35.8113 61.0064 34.8041 59.994 33.5731 59.994H17.9056C14.6043 59.994 11.9371 57.3132 11.9371 53.995V18.001C11.9371 14.6828 14.6043 12.002 17.9056 12.002H33.5731C34.8041 12.002 35.8113 10.9897 35.8113 9.75237V2.25361C35.8113 1.01632 34.8041 0.0039872 33.5731 0.0039872H17.9056C8.02024 0.0039872 0 8.06515 0 18.001V53.995C0 63.9309 8.02024 71.992 17.9056 71.992H33.5731C34.8041 71.992 35.8113 70.9797 35.8113 69.7424Z" fill="white"/>
</svg>
