<svg width="63" height="63" viewBox="0 0 63 63" fill="none" xmlns="http://www.w3.org/2000/svg">
<path d="M31.4969 0H23.6196V7.87808H31.4969V0ZM0 7.87438V15.7525H7.87731V7.87438H0ZM15.7546 0H7.87731V7.87808H15.7546V0ZM23.6319 31.5V39.3781H31.5092V31.5H23.6319ZM0 23.6244V31.5025H7.87731V23.6244H0ZM47.2454 0H39.3681V7.87808H47.2454V0ZM63 0H55.1227V7.87808H63V0ZM15.7546 31.5H7.87731V39.3781H15.7546V31.5ZM62.9938 55.1219V47.2438H55.1165V55.1219H62.9938ZM62.9938 39.3658V31.4877H55.1165V39.3658H62.9938ZM47.2454 63H55.1227V55.1219H47.2454V63ZM63 23.6244V15.7463H55.1227V23.6244H63ZM15.7546 63H23.6319V55.1219H15.7546V63ZM0 63H7.87731V55.1219H0V63ZM31.4969 63H39.3742V55.1219H31.4969V63ZM0 39.3744V47.2525H7.87731V39.3744H0ZM39.3718 15.75V7.87192H31.4945V15.75H39.3718ZM31.4945 31.5062H39.3718V23.6281H31.4945V31.5062ZM23.6172 47.2623V55.1404H31.4945V47.2623H23.6172ZM39.3718 39.3842H47.2491V31.5062H39.3718V39.3842ZM39.3718 23.6342H47.2491V15.7562H39.3718V23.6342ZM39.3718 47.2598V55.1379H47.2491V47.2598H39.3718ZM7.87731 47.25V55.1281H15.7546V47.25H7.87731ZM23.6319 15.75V7.87192H15.7546V15.75H23.6319ZM47.254 47.25H55.1313V39.3719H47.254V47.25ZM31.4994 23.6244V15.7463H23.6221V23.6244H31.4994ZM47.254 7.87438V15.7525H55.1313V7.87438H47.254ZM31.4994 39.3744V47.2525H39.3767V39.3744H31.4994ZM23.6221 23.6244H15.7546V31.5025H23.6319L23.6221 23.6244ZM47.2442 31.5025H55.1215V23.6244H47.2442V31.5025ZM15.7546 15.75H7.87731V23.6281H15.7546V15.75ZM15.7546 39.3744V47.2525H23.6319V39.3744H15.7546Z" fill="white"/>
</svg>
