<svg width="58" height="58" viewBox="0 0 58 58" fill="none" xmlns="http://www.w3.org/2000/svg">
<path d="M57.2112 50.1447L45.9162 38.8517C45.4064 38.342 44.7154 38.0588 43.9903 38.0588H42.1437C45.2705 34.0603 47.1284 29.0311 47.1284 23.5602C47.1284 10.5455 36.5812 0 23.5642 0C10.5473 0 0 10.5455 0 23.5602C0 36.5749 10.5473 47.1204 23.5642 47.1204C29.0361 47.1204 34.0662 45.2628 38.0653 42.1365V43.9828C38.0653 44.7077 38.3485 45.3987 38.8583 45.9084L50.1533 57.2014C51.2182 58.2662 52.9402 58.2662 53.9938 57.2014L57.1999 53.9959C58.2648 52.9312 58.2648 51.2094 57.2112 50.1447ZM23.5642 38.0588C15.5547 38.0588 9.06316 31.5797 9.06316 23.5602C9.06316 15.552 15.5433 9.06161 23.5642 9.06161C31.5738 9.06161 38.0653 15.5407 38.0653 23.5602C38.0653 31.5684 31.5851 38.0588 23.5642 38.0588Z" fill="white"/>
</svg>
