<svg width="104" height="83" viewBox="0 0 104 83" fill="none" xmlns="http://www.w3.org/2000/svg">
<path d="M10.3952 38.9136C10.3952 46.9567 13.8726 54.3187 19.6576 60.1078C17.6101 68.2645 10.8339 75.5454 10.7527 75.6427C10.3952 76.0157 10.2977 76.567 10.5089 77.0535C10.7202 77.5238 11.1752 77.8319 11.6952 77.8319C22.4688 77.8319 30.5451 72.6752 34.5425 69.4969C39.8563 71.4914 45.755 72.6428 51.9949 72.6428C56.4474 72.6428 60.7211 72.059 64.7349 71.0212L11.8414 30.2218C10.9314 32.9947 10.3952 35.8974 10.3952 38.9136ZM102.987 74.2806L84.3973 59.9457C90.1173 54.1728 93.5947 46.8918 93.5947 38.9136C93.5947 20.2814 74.9723 5.18433 51.9949 5.18433C41.4163 5.18433 31.8126 8.44374 24.4676 13.7302L7.38893 0.546568C6.25143 -0.329095 4.62644 -0.134503 3.7327 1.00061L0.547712 5.08704C-0.329784 6.22216 -0.134785 7.84375 1.00271 8.71942L96.6172 82.4534C97.7547 83.3291 99.3797 83.1345 100.273 81.9994L103.458 77.8967C104.336 76.7941 104.125 75.1562 102.987 74.2806Z" fill="white"/>
</svg>
