<svg width="75" height="75" viewBox="0 0 75 75" fill="none" xmlns="http://www.w3.org/2000/svg">
<g clip-path="url(#clip0_410_16)">
<path d="M37.5 42.1875C49.1455 42.1875 58.5938 32.7393 58.5938 21.0938C58.5938 9.44824 49.1455 0 37.5 0C25.8545 0 16.4062 9.44824 16.4062 21.0938C16.4062 32.7393 25.8545 42.1875 37.5 42.1875ZM56.25 46.875H48.1787C44.9268 48.3691 41.3086 49.2188 37.5 49.2188C33.6914 49.2188 30.0879 48.3691 26.8213 46.875H18.75C8.39356 46.875 0 55.2686 0 65.625V67.9688C0 71.8506 3.14941 75 7.03125 75H67.9688C71.8506 75 75 71.8506 75 67.9688V65.625C75 55.2686 66.6064 46.875 56.25 46.875Z" fill="white"/>
</g>
<defs>
<clipPath id="clip0_410_16">
<rect width="75" height="75" fill="white"/>
</clipPath>
</defs>
</svg>
