<svg width="1920" height="1080" viewBox="0 0 1920 1080" fill="none" xmlns="http://www.w3.org/2000/svg">
<g clip-path="url(#clip0_78_244)">
<rect width="1920" height="1080" fill="#161A3D"/>
<line y1="-5" x2="1803.69" y2="-5" transform="matrix(0.703384 -0.710811 0.703384 0.710811 -793.259 830.279)" stroke="#111430" stroke-width="10"/>
<line y1="-5" x2="1803.69" y2="-5" transform="matrix(0.703384 -0.710811 0.703384 0.710811 -740.867 846.594)" stroke="#111430" stroke-width="10"/>
<line y1="-5" x2="1803.69" y2="-5" transform="matrix(0.703384 -0.710811 0.703384 0.710811 -688.476 862.908)" stroke="#111430" stroke-width="10"/>
<line y1="-5" x2="1803.69" y2="-5" transform="matrix(0.703384 -0.710811 0.703384 0.710811 -636.084 879.223)" stroke="#111430" stroke-width="10"/>
<line y1="-5" x2="1803.69" y2="-5" transform="matrix(0.703384 -0.710811 0.703384 0.710811 -583.693 895.537)" stroke="#111430" stroke-width="10"/>
<line y1="-5" x2="1803.69" y2="-5" transform="matrix(0.703384 -0.710811 0.703384 0.710811 -531.301 911.852)" stroke="#111430" stroke-width="10"/>
<line y1="-5" x2="1803.69" y2="-5" transform="matrix(0.703384 -0.710811 0.703384 0.710811 -478.91 928.166)" stroke="#111430" stroke-width="10"/>
<line y1="-5" x2="1803.69" y2="-5" transform="matrix(0.703384 -0.710811 0.703384 0.710811 -426.518 944.48)" stroke="#111430" stroke-width="10"/>
<line y1="-5" x2="1803.69" y2="-5" transform="matrix(0.703384 -0.710811 0.703384 0.710811 -374.127 960.795)" stroke="#111430" stroke-width="10"/>
<line y1="-5" x2="1803.69" y2="-5" transform="matrix(0.703384 -0.710811 0.703384 0.710811 -321.735 977.109)" stroke="#111430" stroke-width="10"/>
<line y1="-5" x2="1803.69" y2="-5" transform="matrix(0.703384 -0.710811 0.703384 0.710811 -269.344 993.424)" stroke="#111430" stroke-width="10"/>
<line y1="-5" x2="1803.69" y2="-5" transform="matrix(0.703384 -0.710811 0.703384 0.710811 -216.952 1009.74)" stroke="#111430" stroke-width="10"/>
<line y1="-5" x2="1803.69" y2="-5" transform="matrix(0.703384 -0.710811 0.703384 0.710811 -164.56 1026.05)" stroke="#111430" stroke-width="10"/>
<line y1="-5" x2="1803.69" y2="-5" transform="matrix(0.703384 -0.710811 0.703384 0.710811 -112.169 1042.37)" stroke="#111430" stroke-width="10"/>
<line y1="-5" x2="1803.69" y2="-5" transform="matrix(0.703384 -0.710811 0.703384 0.710811 -59.7776 1058.68)" stroke="#111430" stroke-width="10"/>
<line y1="-5" x2="1803.69" y2="-5" transform="matrix(0.703384 -0.710811 0.703384 0.710811 -7.38605 1075)" stroke="#111430" stroke-width="10"/>
<line y1="-5" x2="1803.69" y2="-5" transform="matrix(0.703384 -0.710811 0.703384 0.710811 45.0055 1091.31)" stroke="#111430" stroke-width="10"/>
<line y1="-5" x2="1803.69" y2="-5" transform="matrix(0.703384 -0.710811 0.703384 0.710811 97.397 1107.62)" stroke="#111430" stroke-width="10"/>
<line y1="-5" x2="1803.69" y2="-5" transform="matrix(0.703384 -0.710811 0.703384 0.710811 149.788 1123.94)" stroke="#111430" stroke-width="10"/>
<line y1="-5" x2="1803.69" y2="-5" transform="matrix(0.703384 -0.710811 0.703384 0.710811 202.18 1140.25)" stroke="#111430" stroke-width="10"/>
<line y1="-5" x2="1803.69" y2="-5" transform="matrix(0.703384 -0.710811 0.703384 0.710811 254.572 1156.57)" stroke="#111430" stroke-width="10"/>
<line y1="-5" x2="1803.69" y2="-5" transform="matrix(0.703384 -0.710811 0.703384 0.710811 306.963 1172.88)" stroke="#111430" stroke-width="10"/>
<line y1="-5" x2="1803.69" y2="-5" transform="matrix(0.703384 -0.710811 0.703384 0.710811 359.354 1189.2)" stroke="#111430" stroke-width="10"/>
<line y1="-5" x2="1803.69" y2="-5" transform="matrix(0.703384 -0.710811 0.703384 0.710811 411.746 1205.51)" stroke="#111430" stroke-width="10"/>
<line y1="-5" x2="1803.69" y2="-5" transform="matrix(0.703384 -0.710811 0.703384 0.710811 464.138 1221.83)" stroke="#111430" stroke-width="10"/>
<line y1="-5" x2="1803.69" y2="-5" transform="matrix(0.703384 -0.710811 0.703384 0.710811 516.529 1238.14)" stroke="#111430" stroke-width="10"/>
<line y1="-5" x2="1803.69" y2="-5" transform="matrix(0.703384 -0.710811 0.703384 0.710811 568.921 1254.45)" stroke="#111430" stroke-width="10"/>
<line y1="-5" x2="1803.69" y2="-5" transform="matrix(0.703384 -0.710811 0.703384 0.710811 621.312 1270.77)" stroke="#111430" stroke-width="10"/>
<line y1="-5" x2="1803.69" y2="-5" transform="matrix(0.703384 -0.710811 0.703384 0.710811 673.704 1287.08)" stroke="#111430" stroke-width="10"/>
<line y1="-5" x2="1803.69" y2="-5" transform="matrix(0.703384 -0.710811 0.703384 0.710811 726.095 1303.4)" stroke="#111430" stroke-width="10"/>
<line y1="-5" x2="1803.69" y2="-5" transform="matrix(0.703384 -0.710811 0.703384 0.710811 778.487 1319.71)" stroke="#111430" stroke-width="10"/>
<line y1="-5" x2="1803.69" y2="-5" transform="matrix(0.703384 -0.710811 0.703384 0.710811 830.878 1336.03)" stroke="#111430" stroke-width="10"/>
<line y1="-5" x2="1803.69" y2="-5" transform="matrix(0.703384 -0.710811 0.703384 0.710811 883.27 1352.34)" stroke="#111430" stroke-width="10"/>
<line y1="-5" x2="1803.69" y2="-5" transform="matrix(0.703384 -0.710811 0.703384 0.710811 935.661 1368.66)" stroke="#111430" stroke-width="10"/>
<line y1="-5" x2="1803.69" y2="-5" transform="matrix(0.703384 -0.710811 0.703384 0.710811 988.053 1384.97)" stroke="#111430" stroke-width="10"/>
<line y1="-5" x2="1803.69" y2="-5" transform="matrix(0.703384 -0.710811 0.703384 0.710811 1040.44 1401.28)" stroke="#111430" stroke-width="10"/>
<line y1="-5" x2="1803.69" y2="-5" transform="matrix(0.703384 -0.710811 0.703384 0.710811 1092.84 1417.6)" stroke="#111430" stroke-width="10"/>
<line y1="-5" x2="1803.69" y2="-5" transform="matrix(0.703384 -0.710811 0.703384 0.710811 1145.23 1433.91)" stroke="#111430" stroke-width="10"/>
<line y1="-5" x2="1803.69" y2="-5" transform="matrix(0.703384 -0.710811 0.703384 0.710811 1197.62 1450.23)" stroke="#111430" stroke-width="10"/>
<line y1="-5" x2="1803.69" y2="-5" transform="matrix(0.703384 -0.710811 0.703384 0.710811 1250.01 1466.54)" stroke="#111430" stroke-width="10"/>
<line y1="-5" x2="1803.69" y2="-5" transform="matrix(0.703384 -0.710811 0.703384 0.710811 1302.4 1482.86)" stroke="#111430" stroke-width="10"/>
<line y1="-5" x2="1803.69" y2="-5" transform="matrix(0.703384 -0.710811 0.703384 0.710811 1354.79 1499.17)" stroke="#111430" stroke-width="10"/>
<line y1="-5" x2="1803.69" y2="-5" transform="matrix(0.703384 -0.710811 0.703384 0.710811 1407.19 1515.48)" stroke="#111430" stroke-width="10"/>
<line y1="-5" x2="1803.69" y2="-5" transform="matrix(0.703384 -0.710811 0.703384 0.710811 1459.58 1531.8)" stroke="#111430" stroke-width="10"/>
</g>
<defs>
<clipPath id="clip0_78_244">
<rect width="1920" height="1080" fill="white"/>
</clipPath>
</defs>
</svg>
