<svg width="79" height="78" viewBox="0 0 79 78" fill="none" xmlns="http://www.w3.org/2000/svg">
<path d="M76.6613 61.0136L54.5637 38.916L76.6613 16.8184C79.3729 14.1068 79.3729 9.70882 76.6613 6.99726L71.7508 2.08669C69.0392 -0.624867 64.6412 -0.624867 61.9296 2.08669L39.832 24.1843L17.7345 2.08669C15.0229 -0.624867 10.6249 -0.624867 7.91331 2.08669L3.00274 6.99726C0.291182 9.70882 0.291182 14.1068 3.00274 16.8184L25.1003 38.916L3.00274 61.0136C0.291182 63.7251 0.291182 68.1231 3.00274 70.8347L7.91331 75.7453C10.6249 78.4568 15.0229 78.4568 17.7345 75.7453L39.832 53.6477L61.9296 75.7453C64.6412 78.4568 69.0392 78.4568 71.7508 75.7453L76.6613 70.8347C79.3729 68.1231 79.3729 63.7251 76.6613 61.0136Z" fill="white"/>
</svg>
