<svg width="86" height="75" viewBox="0 0 86 75" fill="none" xmlns="http://www.w3.org/2000/svg">
<g style="mix-blend-mode:lighten">
<path d="M43 0C19.2492 0 0 15.5859 0 34.8214C0 43.125 3.59453 50.7254 9.57422 56.702C7.47461 65.1395 0.453516 72.6563 0.369531 72.74C0 73.125 -0.100781 73.6942 0.117578 74.1964C0.335937 74.6987 0.80625 75 1.34375 75C12.4801 75 20.8281 69.6763 24.9602 66.3951C30.4527 68.4542 36.55 69.6429 43 69.6429C66.7508 69.6429 86 54.0569 86 34.8214C86 15.5859 66.7508 0 43 0Z" fill="white"/>
<path d="M42.5 19C32.2802 19 24 27.2802 24 37.5C24 47.7198 32.2802 56 42.5 56C52.7198 56 61 47.7198 61 37.5C61 27.2802 52.7198 19 42.5 19ZM48.4677 31.5323C49.7881 31.5323 50.8548 32.599 50.8548 33.9194C50.8548 35.2397 49.7881 36.3065 48.4677 36.3065C47.1474 36.3065 46.0806 35.2397 46.0806 33.9194C46.0806 32.599 47.1474 31.5323 48.4677 31.5323ZM36.5323 31.5323C37.8526 31.5323 38.9194 32.599 38.9194 33.9194C38.9194 35.2397 37.8526 36.3065 36.5323 36.3065C35.2119 36.3065 34.1452 35.2397 34.1452 33.9194C34.1452 32.599 35.2119 31.5323 36.5323 31.5323ZM51.0637 44.2286C48.9377 46.7798 45.8196 48.2419 42.5 48.2419C39.1804 48.2419 36.0623 46.7798 33.9363 44.2286C32.9218 43.0127 34.7569 41.4909 35.7714 42.6994C37.4423 44.7061 39.8891 45.8474 42.5 45.8474C45.1109 45.8474 47.5577 44.6986 49.2286 42.6994C50.2282 41.4909 52.0708 43.0127 51.0637 44.2286Z" fill="black"/>
</g>
</svg>
