<svg width="70" height="80" viewBox="0 0 70 80" fill="none" xmlns="http://www.w3.org/2000/svg">
<path d="M35 80C40.5187 80 44.9953 75.5234 44.9953 70H25.0047C25.0047 75.5234 29.4813 80 35 80ZM68.6546 56.6078C65.6358 53.3641 59.9874 48.4844 59.9874 32.5C59.9874 20.3594 51.4749 10.6406 39.9969 8.25625V5C39.9969 2.23906 37.7594 0 35 0C32.2406 0 30.0031 2.23906 30.0031 5V8.25625C18.5251 10.6406 10.0126 20.3594 10.0126 32.5C10.0126 48.4844 4.36416 53.3641 1.34542 56.6078C0.407919 57.6156 -0.00770445 58.8203 0.000108029 60C0.0172955 62.5625 2.02823 65 5.01572 65H64.9843C67.9718 65 69.9843 62.5625 69.9999 60C70.0077 58.8203 69.5921 57.6141 68.6546 56.6078Z" fill="white"/>
</svg>
