<svg width="25" height="23" viewBox="0 0 25 23" fill="none" xmlns="http://www.w3.org/2000/svg">
<path d="M9.02778 0C7.73003 0 6.65365 0.889757 6.34549 2.09201C6.31076 2.09201 6.28472 2.08333 6.25 2.08333C4.71788 2.08333 3.47222 3.32899 3.47222 4.86111C3.47222 5.06944 3.49826 5.27344 3.54601 5.46875C2.27865 5.98958 1.38889 7.2309 1.38889 8.68056C1.38889 9.22743 1.52778 9.73524 1.74913 10.1953C0.707465 10.7943 0 11.9054 0 13.1944C0 14.6398 0.885417 15.8811 2.1441 16.4019C2.10503 16.6016 2.08333 16.8056 2.08333 17.0139C2.08333 18.7413 3.4809 20.1389 5.20833 20.1389C5.38628 20.1389 5.5599 20.1172 5.72917 20.0868C6.14583 21.3238 7.30035 22.2222 8.68056 22.2222C10.408 22.2222 11.8056 20.8247 11.8056 19.0972V2.77778C11.8056 1.24566 10.5599 0 9.02778 0ZM25 13.1944C25 11.9054 24.2925 10.7943 23.2509 10.1953C23.4766 9.73524 23.6111 9.22743 23.6111 8.68056C23.6111 7.2309 22.7214 5.98958 21.454 5.46875C21.4974 5.27344 21.5278 5.06944 21.5278 4.86111C21.5278 3.32899 20.2821 2.08333 18.75 2.08333C18.7153 2.08333 18.6849 2.09201 18.6545 2.09201C18.3464 0.889757 17.27 0 15.9722 0C14.4401 0 13.1944 1.24132 13.1944 2.77778V19.0972C13.1944 20.8247 14.592 22.2222 16.3194 22.2222C17.6997 22.2222 18.8542 21.3238 19.2708 20.0868C19.4401 20.1172 19.6137 20.1389 19.7917 20.1389C21.5191 20.1389 22.9167 18.7413 22.9167 17.0139C22.9167 16.8056 22.895 16.6016 22.8559 16.4019C24.1146 15.8811 25 14.6398 25 13.1944Z" fill="#CA86FF"/>
</svg>
