<svg width="76" height="58" viewBox="0 0 76 58" fill="none" xmlns="http://www.w3.org/2000/svg">
<path d="M54.8889 20.7143C54.8889 9.26964 42.6049 0 27.4444 0C12.284 0 0 9.26964 0 20.7143C0 25.1549 1.86042 29.246 5.01389 32.625C3.24583 36.5348 0.329861 39.642 0.290278 39.6808C0 39.9786 -0.0791667 40.4188 0.0923611 40.8071C0.263889 41.1955 0.633333 41.4286 1.05556 41.4286C5.88472 41.4286 9.88264 39.8362 12.759 38.192C17.0076 40.2246 22.0347 41.4286 27.4444 41.4286C42.6049 41.4286 54.8889 32.1589 54.8889 20.7143ZM70.9861 49.1964C74.1396 45.8304 76 41.7263 76 37.2857C76 28.6246 68.941 21.2062 58.9396 18.1121C59.0583 18.9665 59.1111 19.8339 59.1111 20.7143C59.1111 34.4246 44.9007 45.5714 27.4444 45.5714C26.0194 45.5714 24.634 45.4679 23.2618 45.3254C27.4181 52.7696 37.1819 58 48.5556 58C53.9653 58 58.9924 56.8089 63.241 54.7634C66.1174 56.4076 70.1153 58 74.9444 58C75.3667 58 75.7493 57.754 75.9076 57.3786C76.0792 57.0031 76 56.5629 75.7097 56.2522C75.6701 56.2134 72.7542 53.1192 70.9861 49.1964Z" fill="white"/>
</svg>
