<svg width="84" height="96" viewBox="0 0 84 96" fill="none" xmlns="http://www.w3.org/2000/svg">
<path d="M84 67.392C84 68.736 82.8306 69.312 81.4664 69.888C76.0093 72.192 70.1624 74.304 63.9258 74.304C55.1555 74.304 51.0626 68.928 40.5383 68.928C32.9374 68.928 24.9466 71.616 18.5151 74.496C18.1253 74.688 17.7355 74.688 17.3457 74.88V89.472C17.3457 93.4854 14.2772 96 10.9142 96C7.21114 96 4.2877 93.12 4.2877 89.472V19.2C1.75406 17.28 0 14.208 0 10.752C0 4.8 4.87239 0 10.9142 0C16.9559 0 21.8283 4.8 21.8283 10.752C21.8283 14.208 20.2691 17.28 17.5406 19.2V25.152C18.3255 24.8944 28.7258 19.776 39.3689 19.776C51.7916 19.776 57.9594 24.96 63.536 24.96C70.942 24.96 79.1276 19.776 81.0766 19.776C82.6357 19.776 84 20.928 84 22.272V67.392Z" fill="#BBBCFF"/>
</svg>
