<svg width="108" height="98" viewBox="0 0 108 98" fill="none" xmlns="http://www.w3.org/2000/svg">
<path d="M101.794 10.9637L82.7503 12.1328L82.3016 4.82399C82.1524 2.39382 80.0731 0.558988 77.6378 0.708491L27.8324 3.766C25.3971 3.9155 23.5579 5.99089 23.707 8.42106L24.1557 15.7299L5.11248 16.8989C2.67715 17.0484 0.837912 19.1238 0.987099 21.554L1.61525 31.7863C2.0157 38.3094 6.5473 44.7623 14.0792 49.4904C20.1017 53.2841 27.2763 55.4847 34.6888 55.8733C41.0228 65.0401 47.9841 68.556 47.9841 68.556L48.7917 81.7119L40.0025 82.2514C33.5388 82.6483 28.5158 86.7532 28.9117 93.2032L29.0463 95.3958C29.1204 96.6018 30.1697 97.5278 31.3782 97.4536L85.5782 94.1263C86.7867 94.0521 87.7149 93.0047 87.6409 91.7988L87.5063 89.6061C87.1104 83.1561 81.623 79.6964 75.1592 80.0932L66.3701 80.6328L65.5624 67.4769C65.5624 67.4769 72.0413 63.1359 77.2065 53.2632C84.5342 51.9697 91.3857 48.908 96.8806 44.4073C103.759 38.7946 107.486 31.8347 107.085 25.3116L106.457 15.0793C106.308 12.6491 104.229 10.8142 101.794 10.9637ZM20.3453 39.5868C15.68 36.6452 13.4643 33.1864 13.3342 31.0669L13.1547 28.1434L24.9102 27.4217C25.459 33.3671 26.6587 38.539 28.2209 43.0283C25.3977 42.2479 22.7351 41.0908 20.3453 39.5868ZM95.3666 26.031C95.5472 28.9728 92.5305 32.8262 89.4503 35.3445C87.2624 37.1295 84.743 38.6047 82.0364 39.7246C83.0377 35.0779 83.5958 29.7982 83.4133 23.8303L95.1871 23.1075L95.3666 26.031Z" fill="#3AADEE"/>
</svg>
