<svg width="99" height="99" viewBox="0 0 99 99" fill="none" xmlns="http://www.w3.org/2000/svg">
<path d="M94.5116 77.914L67.6672 49.771L95.8103 22.9266C99.2637 19.6325 99.3929 14.1605 96.0989 10.7071L90.1335 4.45311C86.8394 0.999717 81.3674 0.870482 77.914 4.16451L49.7709 31.0089L22.9265 2.86584C19.6325 -0.587552 14.1605 -0.71679 10.7071 2.57724L4.45309 8.54266C0.999704 11.8367 0.87047 17.3087 4.1645 20.7621L31.0089 48.9052L2.86582 75.7496C-0.587566 79.0436 -0.716802 84.5156 2.57723 87.969L8.54265 94.223C11.8367 97.6764 17.3087 97.8056 20.7621 94.5116L48.9052 67.6672L75.7496 95.8103C79.0436 99.2637 84.5156 99.3929 87.969 96.0989L94.223 90.1335C97.6764 86.8394 97.8056 81.3674 94.5116 77.914Z" fill="#EE4F3A"/>
</svg>
