<svg width="219" height="179" viewBox="0 0 219 179" fill="none" xmlns="http://www.w3.org/2000/svg">
<path d="M35.6757 113.708C37.1732 113.25 38.5799 112.54 39.8357 111.61V154.035C39.8357 158.009 41.4165 161.817 44.2258 164.622C47.0347 167.427 50.8413 169 54.8075 169H54.8204L54.8334 169L89.6549 168.91L89.6669 168.91L89.679 168.91C93.6323 168.89 97.4197 167.308 100.212 164.505C103.006 161.702 104.576 157.906 104.576 153.945V129.281H114.407V153.91C114.403 155.875 114.787 157.821 115.535 159.638C116.286 161.46 117.389 163.115 118.781 164.509C120.172 165.903 121.825 167.008 123.643 167.762C125.458 168.514 127.402 168.902 129.366 168.904C129.37 168.904 129.375 168.904 129.379 168.904L164.16 169L164.174 169H164.188C168.154 169 171.961 167.427 174.77 164.622C177.579 161.817 179.16 158.009 179.16 154.035V111.598C180.415 112.532 181.822 113.245 183.321 113.705C185.043 114.234 186.853 114.419 188.646 114.25C190.44 114.08 192.183 113.559 193.776 112.716C195.37 111.873 196.782 110.725 197.932 109.336L197.939 109.326L197.947 109.317L205.87 99.698L205.873 99.6949C207.022 98.2984 207.885 96.6879 208.41 94.9554C208.935 93.223 209.112 91.404 208.931 89.6031C208.75 87.8019 208.214 86.0548 207.355 84.4623C206.503 82.8827 205.35 81.4864 203.962 80.3516C203.95 80.3422 203.939 80.3328 203.927 80.3234L181.646 61.9829V23.7236C181.646 20.0793 180.196 16.5872 177.62 14.0146C175.044 11.4425 171.553 10 167.917 10H150.515C146.879 10 143.388 11.4424 140.813 14.0146C138.236 16.5872 136.787 20.0794 136.787 23.7236V25.0967L125.315 15.6717C125.315 15.6715 125.314 15.6713 125.314 15.6711C120.854 12.0065 115.26 10.0044 109.488 10.0044C103.717 10.0044 98.1221 12.0067 93.662 15.6717L93.659 15.6743L15.0014 80.363L14.9945 80.3686L14.9878 80.3742C13.5973 81.5219 12.446 82.9326 11.6004 84.5263C10.7548 86.12 10.2316 87.8652 10.0612 89.6619C9.89089 91.4587 10.0768 93.2712 10.6081 94.9958C11.1375 96.7144 11.9995 98.3116 13.1443 99.6969C13.1483 99.7018 13.1523 99.7066 13.1563 99.7114L21.0608 109.307C21.061 109.308 21.0612 109.308 21.0614 109.308C22.209 110.701 23.6196 111.854 25.2122 112.701C26.8051 113.548 28.549 114.073 30.3441 114.245C32.1391 114.418 33.9508 114.236 35.6757 113.708Z" fill="white" stroke="#0A0531" stroke-width="20"/>
</svg>
