<svg width="219" height="179" viewBox="0 0 219 179" fill="none" xmlns="http://www.w3.org/2000/svg">
<mask id="path-1-outside-1_301_115" maskUnits="userSpaceOnUse" x="0" y="0" width="219" height="179" fill="black">
<rect fill="white" width="219" height="179"/>
<path d="M107.127 56.0602L49.8357 103.18V154.035C49.8357 155.352 50.3595 156.615 51.2919 157.546C52.2243 158.477 53.4889 159 54.8075 159L89.629 158.91C90.9433 158.903 92.2016 158.377 93.1286 157.447C94.0556 156.517 94.576 155.258 94.576 153.945V124.246C94.576 122.929 95.0998 121.667 96.0322 120.735C96.9646 119.804 98.2293 119.281 99.5479 119.281H119.435C120.754 119.281 122.018 119.804 122.951 120.735C123.883 121.667 124.407 122.929 124.407 124.246V153.923C124.405 154.577 124.532 155.224 124.781 155.828C125.03 156.432 125.396 156.981 125.858 157.444C126.32 157.907 126.868 158.274 127.473 158.524C128.077 158.775 128.725 158.904 129.379 158.904L164.188 159C165.507 159 166.771 158.477 167.704 157.546C168.636 156.615 169.16 155.352 169.16 154.035V103.146L111.881 56.0602C111.208 55.5182 110.369 55.2227 109.504 55.2227C108.639 55.2227 107.8 55.5182 107.127 56.0602ZM197.624 88.0866L171.646 66.7036V23.7236C171.646 22.7361 171.253 21.7889 170.554 21.0906C169.854 20.3923 168.906 20 167.917 20H150.515C149.526 20 148.578 20.3923 147.879 21.0906C147.179 21.7889 146.787 22.7361 146.787 23.7236V46.2547L118.966 23.3978C116.296 21.2039 112.946 20.0044 109.488 20.0044C106.031 20.0044 102.681 21.2039 100.011 23.3978L21.3533 88.0866C20.9757 88.3982 20.6633 88.7811 20.4339 89.2134C20.2046 89.6456 20.0628 90.1188 20.0166 90.6058C19.9704 91.0928 20.0208 91.5841 20.1648 92.0516C20.3089 92.5192 20.5438 92.9538 20.8561 93.3307L28.78 102.95C29.0914 103.328 29.4745 103.641 29.9073 103.872C30.3401 104.102 30.8141 104.244 31.3022 104.291C31.7903 104.338 32.2828 104.289 32.7517 104.145C33.2206 104.002 33.6565 103.768 34.0346 103.456L107.127 43.3379C107.8 42.7958 108.639 42.5003 109.504 42.5003C110.369 42.5003 111.208 42.7958 111.881 43.3379L184.977 103.456C185.354 103.768 185.789 104.002 186.257 104.146C186.726 104.29 187.218 104.34 187.705 104.294C188.193 104.248 188.667 104.106 189.1 103.877C189.532 103.648 189.916 103.336 190.228 102.959L198.152 93.34C198.464 92.9609 198.698 92.5241 198.84 92.0545C198.982 91.5849 199.03 91.0918 198.981 90.6036C198.932 90.1154 198.787 89.6417 198.554 89.2098C198.321 88.7778 198.005 88.3961 197.624 88.0866Z"/>
</mask>
<path d="M107.127 56.0602L49.8357 103.18V154.035C49.8357 155.352 50.3595 156.615 51.2919 157.546C52.2243 158.477 53.4889 159 54.8075 159L89.629 158.91C90.9433 158.903 92.2016 158.377 93.1286 157.447C94.0556 156.517 94.576 155.258 94.576 153.945V124.246C94.576 122.929 95.0998 121.667 96.0322 120.735C96.9646 119.804 98.2293 119.281 99.5479 119.281H119.435C120.754 119.281 122.018 119.804 122.951 120.735C123.883 121.667 124.407 122.929 124.407 124.246V153.923C124.405 154.577 124.532 155.224 124.781 155.828C125.03 156.432 125.396 156.981 125.858 157.444C126.32 157.907 126.868 158.274 127.473 158.524C128.077 158.775 128.725 158.904 129.379 158.904L164.188 159C165.507 159 166.771 158.477 167.704 157.546C168.636 156.615 169.16 155.352 169.16 154.035V103.146L111.881 56.0602C111.208 55.5182 110.369 55.2227 109.504 55.2227C108.639 55.2227 107.8 55.5182 107.127 56.0602ZM197.624 88.0866L171.646 66.7036V23.7236C171.646 22.7361 171.253 21.7889 170.554 21.0906C169.854 20.3923 168.906 20 167.917 20H150.515C149.526 20 148.578 20.3923 147.879 21.0906C147.179 21.7889 146.787 22.7361 146.787 23.7236V46.2547L118.966 23.3978C116.296 21.2039 112.946 20.0044 109.488 20.0044C106.031 20.0044 102.681 21.2039 100.011 23.3978L21.3533 88.0866C20.9757 88.3982 20.6633 88.7811 20.4339 89.2134C20.2046 89.6456 20.0628 90.1188 20.0166 90.6058C19.9704 91.0928 20.0208 91.5841 20.1648 92.0516C20.3089 92.5192 20.5438 92.9538 20.8561 93.3307L28.78 102.95C29.0914 103.328 29.4745 103.641 29.9073 103.872C30.3401 104.102 30.8141 104.244 31.3022 104.291C31.7903 104.338 32.2828 104.289 32.7517 104.145C33.2206 104.002 33.6565 103.768 34.0346 103.456L107.127 43.3379C107.8 42.7958 108.639 42.5003 109.504 42.5003C110.369 42.5003 111.208 42.7958 111.881 43.3379L184.977 103.456C185.354 103.768 185.789 104.002 186.257 104.146C186.726 104.29 187.218 104.34 187.705 104.294C188.193 104.248 188.667 104.106 189.1 103.877C189.532 103.648 189.916 103.336 190.228 102.959L198.152 93.34C198.464 92.9609 198.698 92.5241 198.84 92.0545C198.982 91.5849 199.03 91.0918 198.981 90.6036C198.932 90.1154 198.787 89.6417 198.554 89.2098C198.321 88.7778 198.005 88.3961 197.624 88.0866Z" fill="white"/>
<path d="M107.127 56.0602L49.8357 103.18V154.035C49.8357 155.352 50.3595 156.615 51.2919 157.546C52.2243 158.477 53.4889 159 54.8075 159L89.629 158.91C90.9433 158.903 92.2016 158.377 93.1286 157.447C94.0556 156.517 94.576 155.258 94.576 153.945V124.246C94.576 122.929 95.0998 121.667 96.0322 120.735C96.9646 119.804 98.2293 119.281 99.5479 119.281H119.435C120.754 119.281 122.018 119.804 122.951 120.735C123.883 121.667 124.407 122.929 124.407 124.246V153.923C124.405 154.577 124.532 155.224 124.781 155.828C125.03 156.432 125.396 156.981 125.858 157.444C126.32 157.907 126.868 158.274 127.473 158.524C128.077 158.775 128.725 158.904 129.379 158.904L164.188 159C165.507 159 166.771 158.477 167.704 157.546C168.636 156.615 169.16 155.352 169.16 154.035V103.146L111.881 56.0602C111.208 55.5182 110.369 55.2227 109.504 55.2227C108.639 55.2227 107.8 55.5182 107.127 56.0602ZM197.624 88.0866L171.646 66.7036V23.7236C171.646 22.7361 171.253 21.7889 170.554 21.0906C169.854 20.3923 168.906 20 167.917 20H150.515C149.526 20 148.578 20.3923 147.879 21.0906C147.179 21.7889 146.787 22.7361 146.787 23.7236V46.2547L118.966 23.3978C116.296 21.2039 112.946 20.0044 109.488 20.0044C106.031 20.0044 102.681 21.2039 100.011 23.3978L21.3533 88.0866C20.9757 88.3982 20.6633 88.7811 20.4339 89.2134C20.2046 89.6456 20.0628 90.1188 20.0166 90.6058C19.9704 91.0928 20.0208 91.5841 20.1648 92.0516C20.3089 92.5192 20.5438 92.9538 20.8561 93.3307L28.78 102.95C29.0914 103.328 29.4745 103.641 29.9073 103.872C30.3401 104.102 30.8141 104.244 31.3022 104.291C31.7903 104.338 32.2828 104.289 32.7517 104.145C33.2206 104.002 33.6565 103.768 34.0346 103.456L107.127 43.3379C107.8 42.7958 108.639 42.5003 109.504 42.5003C110.369 42.5003 111.208 42.7958 111.881 43.3379L184.977 103.456C185.354 103.768 185.789 104.002 186.257 104.146C186.726 104.29 187.218 104.34 187.705 104.294C188.193 104.248 188.667 104.106 189.1 103.877C189.532 103.648 189.916 103.336 190.228 102.959L198.152 93.34C198.464 92.9609 198.698 92.5241 198.84 92.0545C198.982 91.5849 199.03 91.0918 198.981 90.6036C198.932 90.1154 198.787 89.6417 198.554 89.2098C198.321 88.7778 198.005 88.3961 197.624 88.0866Z" stroke="#0A0531" stroke-width="40" mask="url(#path-1-outside-1_301_115)"/>
</svg>
