<svg width="1022" height="236" viewBox="0 0 1022 236" fill="none" xmlns="http://www.w3.org/2000/svg">
<g filter="url(#filter0_d_74_118)">
<path d="M142.667 209.22C144.917 212.877 145.761 216.182 145.198 219.136C144.636 222.231 143.229 224.762 140.979 226.732C138.728 228.841 135.985 230.178 132.75 230.74C129.656 231.303 126.491 230.951 123.256 229.685C120.161 228.56 117.489 226.31 115.238 222.934L100.258 198.459C98.4297 195.646 96.0385 193.536 93.0847 192.13C90.2715 190.864 86.8254 190.231 82.3244 190.231L101.591 185.935L111.564 183.712L117.856 182.309C117.856 182.309 120.683 182.965 122.834 184.112C127.054 186.363 130.851 190.231 134.227 195.717L142.667 209.22ZM82.3244 190.231C67.696 190.231 54.8258 187.066 43.7138 180.736C32.7425 174.266 24.1624 165.264 17.9734 153.73C11.9251 142.196 8.901 128.763 8.901 113.432C8.901 101.757 10.5889 91.2781 13.9647 81.9947C17.4811 72.5706 22.4745 64.5531 28.9447 57.9422C35.415 51.1906 43.1512 45.9863 52.1533 42.3292C61.296 38.6721 71.3531 36.8435 82.3244 36.8435C97.2341 36.8435 110.175 40.0084 121.146 46.338C132.117 52.6675 140.627 61.5993 146.675 73.1333C152.864 84.5265 155.959 97.889 155.959 113.221C155.959 124.895 154.201 135.445 150.684 144.869C147.168 154.293 142.174 162.381 135.704 169.132C129.234 175.884 121.153 180.493 117.856 182.309L82.3244 190.231ZM82.3244 162.381C90.6232 162.381 97.6561 160.482 103.423 156.684C109.331 152.746 113.832 147.119 116.926 139.805C120.161 132.35 121.779 123.559 121.779 113.432C121.779 97.9594 118.333 86.0034 111.441 77.564C104.548 68.9838 94.8429 64.6938 82.3244 64.6938C74.1662 64.6938 67.1333 66.5927 61.2257 70.3904C55.3181 74.1882 50.817 79.7442 47.7226 87.0584C44.6281 94.3726 43.0808 103.164 43.0808 113.432C43.0808 128.763 46.527 140.79 53.4192 149.51C60.3114 158.091 69.9465 162.381 82.3244 162.381Z" fill="url(#paint0_linear_74_118)"/>
<path d="M216.701 190.231C207.981 190.231 200.737 188.613 194.97 185.378C189.203 182.143 184.913 177.29 182.1 170.82C179.427 164.209 178.091 156.051 178.091 146.346V98.6627C178.091 93.3176 179.427 89.3089 182.1 86.6364C184.913 83.9639 188.851 82.6277 193.915 82.6277C198.979 82.6277 202.917 83.9639 205.73 86.6364C208.543 89.3089 209.95 93.3176 209.95 98.6627V147.19C209.95 153.379 211.216 158.02 213.748 161.115C216.279 164.069 220.288 165.545 225.774 165.545C231.822 165.545 236.745 163.436 240.543 159.216C244.481 154.855 246.451 149.159 246.451 142.126V98.6627C246.451 93.3176 247.787 89.3089 250.459 86.6364C253.273 83.9639 257.211 82.6277 262.275 82.6277C267.479 82.6277 271.417 83.9639 274.09 86.6364C276.903 89.3089 278.31 93.3176 278.31 98.6627V173.563C278.31 184.394 273.176 189.809 262.908 189.809C257.844 189.809 253.976 188.402 251.303 185.589C248.631 182.776 247.295 178.767 247.295 173.563C243.953 178.02 242.934 180.385 237.167 184.323C231.4 188.262 224.578 190.231 216.701 190.231Z" fill="url(#paint1_linear_74_118)"/>
<path d="M337.986 190.231C330.39 190.231 323.568 188.754 317.52 185.8C311.472 182.846 306.76 178.838 303.384 173.774C300.008 168.71 298.32 163.014 298.32 156.684C298.32 149.088 300.29 143.111 304.228 138.75C308.166 134.249 314.566 131.084 323.428 129.256C332.289 127.287 344.034 126.302 358.663 126.302H366.258V142.759H358.874C351.7 142.759 345.863 143.181 341.362 144.025C337.001 144.728 333.836 145.994 331.867 147.823C330.039 149.651 329.124 152.183 329.124 155.418C329.124 159.356 330.461 162.592 333.133 165.123C335.946 167.655 339.955 168.921 345.159 168.921C349.238 168.921 352.825 168.007 355.92 166.178C359.155 164.209 361.687 161.607 363.515 158.372C365.344 154.996 366.258 151.198 366.258 146.979V122.715C366.258 116.526 364.852 112.166 362.038 109.634C359.225 106.961 354.443 105.625 347.691 105.625C343.893 105.625 339.744 106.118 335.243 107.102C330.883 107.946 326.03 109.423 320.685 111.533C317.59 112.939 314.848 113.291 312.456 112.588C310.065 111.744 308.237 110.337 306.971 108.368C305.705 106.258 305.072 104.008 305.072 101.616C305.072 99.0846 305.775 96.6934 307.182 94.4429C308.588 92.0517 310.909 90.2935 314.144 89.1682C320.755 86.4958 326.944 84.6672 332.711 83.6826C338.619 82.698 344.034 82.2057 348.957 82.2057C359.788 82.2057 368.649 83.8232 375.541 87.0584C382.574 90.1528 387.849 95.0055 391.365 101.616C394.882 108.087 396.64 116.456 396.64 126.724V173.563C396.64 178.767 395.374 182.776 392.842 185.589C390.311 188.402 386.653 189.809 381.871 189.809C377.089 189.809 373.361 188.402 370.689 185.589C368.157 182.776 366.891 178.767 366.891 173.563V172.435C366.564 173.563 365.695 175.954 362.882 179.471C360.21 182.846 356.764 185.519 352.544 187.488C348.324 189.317 343.471 190.231 337.986 190.231Z" fill="url(#paint2_linear_74_118)"/>
<path d="M436.441 189.809C431.236 189.809 427.228 188.402 424.415 185.589C421.742 182.776 420.406 178.767 420.406 173.563V98.6627C420.406 93.4583 421.742 89.5199 424.415 86.8474C427.228 84.0342 431.096 82.6277 436.019 82.6277C441.083 82.6277 444.951 84.0342 447.623 86.8474C450.296 89.5199 451.632 93.4583 451.632 98.6627C453.292 95.6033 457.328 91.5594 463.658 87.9023C470.128 84.1046 477.443 82.2057 485.601 82.2057C493.9 82.2057 500.721 83.8232 506.066 87.0584C511.411 90.1528 515.42 94.9352 518.093 101.405C520.765 107.735 522.101 115.823 522.101 125.669V173.563C522.101 178.767 520.695 182.776 517.882 185.589C515.209 188.402 511.271 189.809 506.066 189.809C501.003 189.809 497.064 188.402 494.251 185.589C491.579 182.776 490.242 178.767 490.242 173.563V127.146C490.242 119.972 488.906 114.838 486.234 111.744C483.702 108.509 479.763 106.891 474.418 106.891C467.667 106.891 462.252 109.001 458.172 113.221C454.234 117.44 452.265 123.067 452.265 130.1V173.563C452.265 184.394 446.99 189.809 436.441 189.809Z" fill="url(#paint3_linear_74_118)"/>
<path d="M562.342 189.809C556.997 189.809 552.918 188.402 550.105 185.589C547.292 182.776 545.885 178.767 545.885 173.563V98.6627C545.885 93.4583 547.221 89.5199 549.894 86.8474C552.707 84.0342 556.575 82.6277 561.498 82.6277C566.562 82.6277 570.43 84.0342 573.102 86.8474C575.775 89.5199 577.111 93.4583 577.111 98.6627V102.197C578.377 96.4275 580.417 94.6539 586.184 90.0122C591.951 85.3705 599.406 82.7683 608.548 82.2057C612.065 81.9244 614.737 82.8386 616.566 84.9485C618.535 86.9177 619.59 90.2232 619.731 94.8649C620.012 99.2253 619.098 102.671 616.988 105.203C615.018 107.735 611.643 109.282 606.86 109.845L602.008 110.267C593.99 110.97 588.012 113.291 584.074 117.229C580.276 121.168 578.377 126.865 578.377 134.319V173.563C578.377 178.767 576.971 182.776 574.157 185.589C571.485 188.402 567.547 189.809 562.342 189.809Z" fill="url(#paint4_linear_74_118)"/>
<path d="M648.87 189.598C643.665 189.598 639.657 188.121 636.844 185.167C634.171 182.073 632.835 177.783 632.835 172.297V100.14C632.835 94.5132 634.171 90.2232 636.844 87.2694C639.657 84.1749 643.665 82.6277 648.87 82.6277C653.933 82.6277 657.802 84.1749 660.474 87.2694C663.287 90.2232 664.694 94.5132 664.694 100.14V172.297C664.694 177.783 663.358 182.073 660.685 185.167C658.013 188.121 654.074 189.598 648.87 189.598ZM648.87 65.3268C642.962 65.3268 638.391 63.9905 635.156 61.318C632.061 58.5048 630.514 54.5664 630.514 49.5028C630.514 44.2984 632.061 40.36 635.156 37.6875C638.391 34.8743 642.962 33.4678 648.87 33.4678C654.777 33.4678 659.278 34.8743 662.373 37.6875C665.467 40.36 667.015 44.2984 667.015 49.5028C667.015 54.5664 665.467 58.5048 662.373 61.318C659.278 63.9905 654.777 65.3268 648.87 65.3268Z" fill="url(#paint5_linear_74_118)"/>
<path d="M729.589 190.231C720.587 190.231 712.639 188.051 705.747 183.69C698.996 179.33 693.721 173.071 689.923 164.912C686.125 156.754 684.227 147.119 684.227 136.007C684.227 124.895 686.125 115.331 689.923 107.313C693.721 99.2956 698.996 93.1067 705.747 88.7463C712.639 84.3859 720.587 82.2057 729.589 82.2057C737.747 82.2057 744.92 84.1749 751.109 88.1133C757.439 92.0517 758.233 93.1308 761.856 98.9L761.659 53.5115C761.659 48.1665 762.995 44.1578 765.667 41.4853C768.34 38.6721 772.278 37.2655 777.483 37.2655C782.546 37.2655 786.485 38.6721 789.298 41.4853C792.111 44.1578 793.518 48.1665 793.518 53.5115V173.563C793.518 178.767 792.111 182.776 789.298 185.589C786.625 188.402 782.757 189.809 777.694 189.809C772.63 189.809 768.692 188.402 765.878 185.589C763.206 182.776 761.87 178.767 761.87 173.563C759.058 178.844 758.002 179.893 751.531 184.112C745.202 188.191 737.888 190.231 729.589 190.231ZM739.083 166.389C743.725 166.389 747.734 165.264 751.109 163.014C754.485 160.763 757.158 157.458 759.127 153.097C761.096 148.596 762.081 142.9 762.081 136.007C762.081 125.739 759.971 118.214 755.751 113.432C751.531 108.509 745.975 106.047 739.083 106.047C734.582 106.047 730.573 107.102 727.057 109.212C723.681 111.322 721.009 114.627 719.039 119.128C717.211 123.489 716.297 129.115 716.297 136.007C716.297 146.275 718.406 153.941 722.626 159.005C726.846 163.928 732.331 166.389 739.083 166.389Z" fill="url(#paint6_linear_74_118)"/>
<path d="M867.859 190.231C856.747 190.231 847.042 188.051 838.743 183.69C830.585 179.33 824.255 173.071 819.754 164.912C815.253 156.754 813.003 147.119 813.003 136.007C813.003 127.708 814.269 120.254 816.8 113.643C819.332 107.032 822.989 101.405 827.772 96.7638C832.695 91.9814 838.532 88.3946 845.284 86.0034C852.035 83.4716 859.56 82.2057 867.859 82.2057C878.971 82.2057 888.606 84.3859 896.764 88.7463C905.063 93.1067 911.463 99.2956 915.964 107.313C920.606 115.331 922.927 124.895 922.927 136.007C922.927 144.447 921.59 151.972 918.918 158.583C916.386 165.194 912.729 170.89 907.947 175.673C903.164 180.455 897.327 184.112 890.435 186.644C883.683 189.035 876.158 190.231 867.859 190.231ZM867.859 166.389C872.501 166.389 876.51 165.264 879.885 163.014C883.261 160.763 885.934 157.458 887.903 153.097C889.872 148.596 890.857 142.9 890.857 136.007C890.857 125.739 888.747 118.214 884.527 113.432C880.307 108.509 874.751 106.047 867.859 106.047C863.358 106.047 859.349 107.102 855.833 109.212C852.457 111.322 849.785 114.627 847.815 119.128C845.987 123.489 845.073 129.115 845.073 136.007C845.073 146.275 847.182 153.941 851.402 159.005C855.622 163.928 861.108 166.389 867.859 166.389Z" fill="url(#paint7_linear_74_118)"/>
<path d="M958.766 189.809C953.421 189.809 949.342 188.402 946.529 185.589C943.716 182.776 942.309 178.767 942.309 173.563V98.6627C942.309 93.4583 943.646 89.5199 946.318 86.8474C949.131 84.0342 952.999 82.6277 957.922 82.6277C962.986 82.6277 966.854 84.0342 969.527 86.8474C972.199 89.5199 973.535 93.4583 973.535 98.6627V102.197C975.813 96.4275 976.841 94.6539 982.608 90.0122C988.375 85.3705 995.83 82.7683 1004.97 82.2057C1008.49 81.9244 1011.16 82.8386 1012.99 84.9485C1014.96 86.9177 1016.01 90.2232 1016.15 94.8649C1016.44 99.2253 1015.52 102.671 1013.41 105.203C1011.44 107.735 1008.07 109.282 1003.28 109.845L998.432 110.267C990.414 110.97 984.436 113.291 980.498 117.229C976.7 121.168 974.801 126.865 974.801 134.319V173.563C974.801 178.767 973.395 182.776 970.582 185.589C967.909 188.402 963.971 189.809 958.766 189.809Z" fill="url(#paint8_linear_74_118)"/>
<path d="M98.9 113.735C98.9 124.659 91.5202 133.515 82.4167 133.515C73.3132 133.515 65.9333 124.659 65.9333 113.735C65.9333 102.811 73.3132 93.955 82.4167 93.955C91.5202 93.955 98.9 102.811 98.9 113.735Z" fill="url(#paint9_radial_74_118)"/>
<path d="M98.9 113.735C98.9 124.659 91.5202 133.515 82.4167 133.515C73.3132 133.515 65.9333 124.659 65.9333 113.735C65.9333 102.811 73.3132 93.955 82.4167 93.955C91.5202 93.955 98.9 102.811 98.9 113.735Z" fill="#F1A6FD"/>
<path d="M39.56 159.888C39.56 170.813 30.7042 179.668 19.78 179.668C8.85581 179.668 0 170.813 0 159.888C0 148.964 8.85581 140.108 19.78 140.108C30.7042 140.108 39.56 148.964 39.56 159.888Z" fill="#EE4F3A"/>
<path d="M113.735 44.505C113.735 55.4292 104.879 64.285 93.955 64.285C83.0308 64.285 74.175 55.4292 74.175 44.505C74.175 33.5808 83.0308 24.725 93.955 24.725C104.879 24.725 113.735 33.5808 113.735 44.505Z" fill="#EE4F3A"/>
<path d="M65.9333 205.218C65.9333 209.314 62.6124 212.635 58.5158 212.635C54.4193 212.635 51.0983 209.314 51.0983 205.218C51.0983 201.121 54.4193 197.8 58.5158 197.8C62.6124 197.8 65.9333 201.121 65.9333 205.218Z" fill="#F1A6FD"/>
<path d="M163.185 184.613C163.185 190.986 158.019 196.152 151.647 196.152C145.274 196.152 140.108 190.986 140.108 184.613C140.108 178.241 145.274 173.075 151.647 173.075C158.019 173.075 163.185 178.241 163.185 184.613Z" fill="#EE4F3A"/>
<path d="M138.46 31.3183C138.46 34.9597 135.508 37.9117 131.867 37.9117C128.225 37.9117 125.273 34.9597 125.273 31.3183C125.273 27.6769 128.225 24.725 131.867 24.725C135.508 24.725 138.46 27.6769 138.46 31.3183Z" fill="#F1A6FD"/>
<path d="M154.943 9.06583C154.943 14.0728 150.884 18.1317 145.878 18.1317C140.871 18.1317 136.812 14.0728 136.812 9.06583C136.812 4.05891 140.871 0 145.878 0C150.884 0 154.943 4.05891 154.943 9.06583Z" fill="#EE4F3A"/>
<path d="M178.02 43.6808C178.02 52.3292 171.009 59.34 162.361 59.34C153.713 59.34 146.702 52.3292 146.702 43.6808C146.702 35.0325 153.713 28.0217 162.361 28.0217C171.009 28.0217 178.02 35.0325 178.02 43.6808Z" fill="#EE4F3A"/>
<path d="M93.955 215.932C93.955 222.304 88.7891 227.47 82.4167 227.47C76.0442 227.47 70.8783 222.304 70.8783 215.932C70.8783 209.559 76.0442 204.393 82.4167 204.393C88.7891 204.393 93.955 209.559 93.955 215.932Z" fill="#EE4F3A"/>
</g>
<defs>
<filter id="filter0_d_74_118" x="0" y="0" width="1021.2" height="236" filterUnits="userSpaceOnUse" color-interpolation-filters="sRGB">
<feFlood flood-opacity="0" result="BackgroundImageFix"/>
<feColorMatrix in="SourceAlpha" type="matrix" values="0 0 0 0 0 0 0 0 0 0 0 0 0 0 0 0 0 0 127 0" result="hardAlpha"/>
<feOffset dx="5" dy="5"/>
<feComposite in2="hardAlpha" operator="out"/>
<feColorMatrix type="matrix" values="0 0 0 0 0.0862745 0 0 0 0 0.101961 0 0 0 0 0.239216 0 0 0 1 0"/>
<feBlend mode="normal" in2="BackgroundImageFix" result="effect1_dropShadow_74_118"/>
<feBlend mode="normal" in="SourceGraphic" in2="effect1_dropShadow_74_118" result="shape"/>
</filter>
<linearGradient id="paint0_linear_74_118" x1="65.7737" y1="131.34" x2="577.94" y2="123.147" gradientUnits="userSpaceOnUse">
<stop stop-color="#EE4F3A"/>
<stop offset="0.196666" stop-color="#EE4F3A"/>
<stop offset="0.246666" stop-color="#E95C32"/>
<stop offset="0.886666" stop-color="#F1A7FF"/>
<stop offset="0.951666" stop-color="white"/>
</linearGradient>
<linearGradient id="paint1_linear_74_118" x1="65.7737" y1="131.34" x2="577.94" y2="123.147" gradientUnits="userSpaceOnUse">
<stop stop-color="#EE4F3A"/>
<stop offset="0.196666" stop-color="#EE4F3A"/>
<stop offset="0.246666" stop-color="#E95C32"/>
<stop offset="0.886666" stop-color="#F1A7FF"/>
<stop offset="0.951666" stop-color="white"/>
</linearGradient>
<linearGradient id="paint2_linear_74_118" x1="65.7737" y1="131.34" x2="577.94" y2="123.147" gradientUnits="userSpaceOnUse">
<stop stop-color="#EE4F3A"/>
<stop offset="0.196666" stop-color="#EE4F3A"/>
<stop offset="0.246666" stop-color="#E95C32"/>
<stop offset="0.886666" stop-color="#F1A7FF"/>
<stop offset="0.951666" stop-color="white"/>
</linearGradient>
<linearGradient id="paint3_linear_74_118" x1="65.7737" y1="131.34" x2="577.94" y2="123.147" gradientUnits="userSpaceOnUse">
<stop stop-color="#EE4F3A"/>
<stop offset="0.196666" stop-color="#EE4F3A"/>
<stop offset="0.246666" stop-color="#E95C32"/>
<stop offset="0.886666" stop-color="#F1A7FF"/>
<stop offset="0.951666" stop-color="white"/>
</linearGradient>
<linearGradient id="paint4_linear_74_118" x1="65.7737" y1="131.34" x2="577.94" y2="123.147" gradientUnits="userSpaceOnUse">
<stop stop-color="#EE4F3A"/>
<stop offset="0.196666" stop-color="#EE4F3A"/>
<stop offset="0.246666" stop-color="#E95C32"/>
<stop offset="0.886666" stop-color="#F1A7FF"/>
<stop offset="0.951666" stop-color="white"/>
</linearGradient>
<linearGradient id="paint5_linear_74_118" x1="65.7737" y1="131.34" x2="577.94" y2="123.147" gradientUnits="userSpaceOnUse">
<stop stop-color="#EE4F3A"/>
<stop offset="0.196666" stop-color="#EE4F3A"/>
<stop offset="0.246666" stop-color="#E95C32"/>
<stop offset="0.886666" stop-color="#F1A7FF"/>
<stop offset="0.951666" stop-color="white"/>
</linearGradient>
<linearGradient id="paint6_linear_74_118" x1="65.7737" y1="131.34" x2="577.94" y2="123.147" gradientUnits="userSpaceOnUse">
<stop stop-color="#EE4F3A"/>
<stop offset="0.196666" stop-color="#EE4F3A"/>
<stop offset="0.246666" stop-color="#E95C32"/>
<stop offset="0.886666" stop-color="#F1A7FF"/>
<stop offset="0.951666" stop-color="white"/>
</linearGradient>
<linearGradient id="paint7_linear_74_118" x1="65.7737" y1="131.34" x2="577.94" y2="123.147" gradientUnits="userSpaceOnUse">
<stop stop-color="#EE4F3A"/>
<stop offset="0.196666" stop-color="#EE4F3A"/>
<stop offset="0.246666" stop-color="#E95C32"/>
<stop offset="0.886666" stop-color="#F1A7FF"/>
<stop offset="0.951666" stop-color="white"/>
</linearGradient>
<linearGradient id="paint8_linear_74_118" x1="65.7737" y1="131.34" x2="577.94" y2="123.147" gradientUnits="userSpaceOnUse">
<stop stop-color="#EE4F3A"/>
<stop offset="0.196666" stop-color="#EE4F3A"/>
<stop offset="0.246666" stop-color="#E95C32"/>
<stop offset="0.886666" stop-color="#F1A7FF"/>
<stop offset="0.951666" stop-color="white"/>
</linearGradient>
<radialGradient id="paint9_radial_74_118" cx="0" cy="0" r="1" gradientUnits="userSpaceOnUse" gradientTransform="translate(528.426 110.88) rotate(90) scale(97.02 426.806)">
<stop offset="0.561666" stop-color="white"/>
<stop offset="1" stop-opacity="0"/>
</radialGradient>
</defs>
</svg>
