<svg width="181" height="181" viewBox="0 0 181 181" fill="none" xmlns="http://www.w3.org/2000/svg">
<path d="M90.5001 56.5625C106.126 56.5625 118.781 43.9066 118.781 28.2812C118.781 12.6559 106.126 0 90.5001 0C74.8747 0 62.2189 12.6559 62.2189 28.2812C62.2189 43.9066 74.8747 56.5625 90.5001 56.5625ZM71.6224 144.517L80.6724 133.205L58.9312 115.105L42.7048 135.396C38.6747 140.416 38.5687 147.557 42.422 152.719L59.3907 175.344C62.1835 179.056 66.4257 181 70.7032 181C73.6374 181 76.6423 180.081 79.1876 178.172C85.4448 173.505 86.6821 164.632 82.0157 158.375L71.6224 144.517ZM122.069 115.105L100.328 133.205L109.378 144.517L98.9845 158.375C94.3181 164.632 95.5554 173.505 101.813 178.172C104.358 180.081 107.327 181 110.297 181C114.61 181 118.852 179.056 121.609 175.344L138.578 152.719C142.432 147.557 142.326 140.416 138.295 135.396L122.069 115.105ZM155.794 51.2598C151.305 44.8611 142.502 43.341 136.104 47.7953L121.751 57.8705C103.121 70.9506 77.8443 70.9506 59.2493 57.8705L44.8966 47.8307C38.498 43.341 29.6954 44.8965 25.2058 51.2598C20.7161 57.6584 22.2716 66.4609 28.6349 70.9506L42.9876 81.0258C48.9974 85.2326 55.5021 88.4143 62.2189 90.8889V101.812H118.781V90.9242C125.498 88.4496 132.003 85.268 138.013 81.0611L152.365 70.9859C158.764 66.4609 160.284 57.6584 155.794 51.2598Z" fill="white"/>
</svg>
