<svg width="184" height="184" viewBox="0 0 184 184" fill="none" xmlns="http://www.w3.org/2000/svg">
<mask id="path-1-outside-1_301_116" maskUnits="userSpaceOnUse" x="0" y="0" width="184" height="184" fill="black">
<rect fill="white" width="184" height="184"/>
<path d="M160.574 20H147.037C146.573 19.9995 146.114 20.0933 145.687 20.2757C145.26 20.458 144.875 20.7253 144.555 21.0611C144.234 21.3969 143.985 21.7943 143.823 22.2293C143.661 22.6643 143.588 23.1277 143.61 23.5914L144.753 47.2371C138.112 39.4071 129.847 33.1188 120.531 28.8098C111.216 24.5007 101.074 22.2744 90.8108 22.2857C51.7906 22.2857 19.9715 54.1514 20 93.1971C20.0286 132.306 51.7221 164 90.8108 164C108.345 164.025 125.26 157.515 138.26 145.74C138.607 145.429 138.887 145.05 139.083 144.627C139.279 144.204 139.387 143.746 139.4 143.279C139.413 142.813 139.33 142.349 139.158 141.916C138.985 141.483 138.726 141.09 138.397 140.76L128.689 131.046C128.074 130.431 127.25 130.073 126.381 130.044C125.513 130.015 124.666 130.316 124.012 130.889C116.341 137.642 106.795 141.895 96.6473 143.081C86.4993 144.267 76.231 142.33 67.2114 137.527C58.1918 132.724 50.8494 125.285 46.163 116.2C41.4766 107.115 39.6688 96.8169 40.9808 86.6778C42.2927 76.5387 46.6619 67.0407 53.5061 59.4498C60.3502 51.8589 69.344 46.5359 79.2885 44.1904C89.233 41.8448 99.6558 42.5882 109.167 46.3214C118.679 50.0546 126.827 56.6002 132.526 65.0857L103.537 63.6943C103.073 63.6722 102.61 63.7446 102.175 63.907C101.741 64.0694 101.344 64.3184 101.008 64.639C100.672 64.9596 100.405 65.3451 100.223 65.772C100.041 66.199 99.9471 66.6586 99.9477 67.1228V80.6685C99.9477 81.5779 100.309 82.4499 100.951 83.0929C101.594 83.7359 102.465 84.0971 103.374 84.0971H160.574C161.482 84.0971 162.354 83.7359 162.996 83.0929C163.639 82.4499 164 81.5779 164 80.6685V23.4286C164 22.5193 163.639 21.6472 162.996 21.0042C162.354 20.3612 161.482 20 160.574 20Z"/>
</mask>
<path d="M160.574 20H147.037C146.573 19.9995 146.114 20.0933 145.687 20.2757C145.26 20.458 144.875 20.7253 144.555 21.0611C144.234 21.3969 143.985 21.7943 143.823 22.2293C143.661 22.6643 143.588 23.1277 143.61 23.5914L144.753 47.2371C138.112 39.4071 129.847 33.1188 120.531 28.8098C111.216 24.5007 101.074 22.2744 90.8108 22.2857C51.7906 22.2857 19.9715 54.1514 20 93.1971C20.0286 132.306 51.7221 164 90.8108 164C108.345 164.025 125.26 157.515 138.26 145.74C138.607 145.429 138.887 145.05 139.083 144.627C139.279 144.204 139.387 143.746 139.4 143.279C139.413 142.813 139.33 142.349 139.158 141.916C138.985 141.483 138.726 141.09 138.397 140.76L128.689 131.046C128.074 130.431 127.25 130.073 126.381 130.044C125.513 130.015 124.666 130.316 124.012 130.889C116.341 137.642 106.795 141.895 96.6473 143.081C86.4993 144.267 76.231 142.33 67.2114 137.527C58.1918 132.724 50.8494 125.285 46.163 116.2C41.4766 107.115 39.6688 96.8169 40.9808 86.6778C42.2927 76.5387 46.6619 67.0407 53.5061 59.4498C60.3502 51.8589 69.344 46.5359 79.2885 44.1904C89.233 41.8448 99.6558 42.5882 109.167 46.3214C118.679 50.0546 126.827 56.6002 132.526 65.0857L103.537 63.6943C103.073 63.6722 102.61 63.7446 102.175 63.907C101.741 64.0694 101.344 64.3184 101.008 64.639C100.672 64.9596 100.405 65.3451 100.223 65.772C100.041 66.199 99.9471 66.6586 99.9477 67.1228V80.6685C99.9477 81.5779 100.309 82.4499 100.951 83.0929C101.594 83.7359 102.465 84.0971 103.374 84.0971H160.574C161.482 84.0971 162.354 83.7359 162.996 83.0929C163.639 82.4499 164 81.5779 164 80.6685V23.4286C164 22.5193 163.639 21.6472 162.996 21.0042C162.354 20.3612 161.482 20 160.574 20Z" fill="white"/>
<path d="M160.574 20H147.037C146.573 19.9995 146.114 20.0933 145.687 20.2757C145.26 20.458 144.875 20.7253 144.555 21.0611C144.234 21.3969 143.985 21.7943 143.823 22.2293C143.661 22.6643 143.588 23.1277 143.61 23.5914L144.753 47.2371C138.112 39.4071 129.847 33.1188 120.531 28.8098C111.216 24.5007 101.074 22.2744 90.8108 22.2857C51.7906 22.2857 19.9715 54.1514 20 93.1971C20.0286 132.306 51.7221 164 90.8108 164C108.345 164.025 125.26 157.515 138.26 145.74C138.607 145.429 138.887 145.05 139.083 144.627C139.279 144.204 139.387 143.746 139.4 143.279C139.413 142.813 139.33 142.349 139.158 141.916C138.985 141.483 138.726 141.09 138.397 140.76L128.689 131.046C128.074 130.431 127.25 130.073 126.381 130.044C125.513 130.015 124.666 130.316 124.012 130.889C116.341 137.642 106.795 141.895 96.6473 143.081C86.4993 144.267 76.231 142.33 67.2114 137.527C58.1918 132.724 50.8494 125.285 46.163 116.2C41.4766 107.115 39.6688 96.8169 40.9808 86.6778C42.2927 76.5387 46.6619 67.0407 53.5061 59.4498C60.3502 51.8589 69.344 46.5359 79.2885 44.1904C89.233 41.8448 99.6558 42.5882 109.167 46.3214C118.679 50.0546 126.827 56.6002 132.526 65.0857L103.537 63.6943C103.073 63.6722 102.61 63.7446 102.175 63.907C101.741 64.0694 101.344 64.3184 101.008 64.639C100.672 64.9596 100.405 65.3451 100.223 65.772C100.041 66.199 99.9471 66.6586 99.9477 67.1228V80.6685C99.9477 81.5779 100.309 82.4499 100.951 83.0929C101.594 83.7359 102.465 84.0971 103.374 84.0971H160.574C161.482 84.0971 162.354 83.7359 162.996 83.0929C163.639 82.4499 164 81.5779 164 80.6685V23.4286C164 22.5193 163.639 21.6472 162.996 21.0042C162.354 20.3612 161.482 20 160.574 20Z" stroke="#0A0531" stroke-width="40" mask="url(#path-1-outside-1_301_116)"/>
</svg>
