<svg width="153" height="223" viewBox="0 0 153 223" fill="none" xmlns="http://www.w3.org/2000/svg">
<path d="M76.7047 0C42.0014 0 19.5239 14.2437 1.87683 39.6461C-1.32442 44.2542 -0.337484 50.5722 4.12809 53.9643L22.8834 68.2106C27.3934 71.6361 33.8102 70.8352 37.341 66.4039C48.2317 52.736 56.3103 44.8666 73.3217 44.8666C86.6972 44.8666 103.241 53.4899 103.241 66.4832C103.241 76.3056 95.147 81.3501 81.9403 88.7675C66.5392 97.4175 46.1587 108.182 46.1587 135.112V139.375C46.1587 145.148 50.8304 149.828 56.5933 149.828H88.1019C93.8649 149.828 98.5366 145.148 98.5366 139.375V136.861C98.5366 118.193 153 117.416 153 66.9C153 28.8576 113.609 0 76.7047 0ZM72.3478 162.659C55.7412 162.659 42.2305 176.194 42.2305 192.83C42.2305 209.465 55.7412 223 72.3478 223C88.9545 223 102.465 209.465 102.465 192.829C102.465 176.193 88.9545 162.659 72.3478 162.659Z" fill="white"/>
</svg>
