<svg width="221" height="221" viewBox="0 0 221 221" fill="none" xmlns="http://www.w3.org/2000/svg">
<path d="M110.5 3.45312C51.3652 3.45312 3.45312 51.3652 3.45312 110.5C3.45312 169.635 51.3652 217.547 110.5 217.547C169.635 217.547 217.547 169.635 217.547 110.5C217.547 51.3652 169.635 3.45312 110.5 3.45312ZM110.5 44.8906C131.478 44.8906 148.484 61.8973 148.484 82.875C148.484 103.853 131.478 120.859 110.5 120.859C89.5223 120.859 72.5156 103.853 72.5156 82.875C72.5156 61.8973 89.5223 44.8906 110.5 44.8906ZM110.5 193.375C85.1627 193.375 62.4584 181.893 47.2646 163.937C55.3795 148.657 71.2639 138.125 89.7812 138.125C90.8172 138.125 91.8531 138.298 92.8459 138.6C98.4572 140.413 104.328 141.578 110.5 141.578C116.672 141.578 122.586 140.413 128.154 138.6C129.147 138.298 130.183 138.125 131.219 138.125C149.736 138.125 165.621 148.657 173.735 163.937C158.542 181.893 135.837 193.375 110.5 193.375Z" fill="white"/>
</svg>
